<?xml version="1.0" standalone="no"?>
<!DOCTYPE svg PUBLIC "-//W3C//DTD SVG 20010904//EN"
 "http://www.w3.org/TR/2001/REC-SVG-20010904/DTD/svg10.dtd">
<svg version="1.0" xmlns="http://www.w3.org/2000/svg"
 width="1896.000000pt" height="917.000000pt" viewBox="0 0 1896.000000 917.000000"
 preserveAspectRatio="xMidYMid meet">

<g transform="translate(0.000000,917.000000) scale(0.100000,-0.100000)"
fill="#000000" stroke="none">
<path d="M0 4585 l0 -4585 9480 0 9480 0 0 4585 0 4585 -9480 0 -9480 0 0
-4585z m14411 4215 c10 -6 19 -20 19 -31 0 -19 1 -19 16 -4 11 11 25 14 45 10
21 -5 31 -2 35 9 8 21 24 20 40 -1 9 -13 9 -21 1 -31 -8 -10 -8 -19 1 -33 11
-17 9 -19 -12 -19 -14 0 -30 8 -35 18 -9 15 -10 15 -11 1 0 -23 -34 -30 -59
-12 -12 8 -21 10 -21 5 0 -17 -54 -21 -77 -6 -31 19 -31 67 -1 88 26 19 33 19
59 6z m275 -4 c14 -10 22 -11 32 -4 10 8 17 6 28 -10 13 -18 18 -20 34 -9 16
9 24 9 40 -1 11 -7 20 -8 20 -4 0 5 14 9 32 10 17 0 35 7 40 14 7 10 12 8 26
-8 15 -17 22 -20 37 -11 13 7 24 6 36 -1 20 -13 69 5 69 26 0 6 7 12 15 12 11
0 15 -13 15 -54 0 -49 -2 -54 -24 -58 -13 -3 -31 -1 -40 4 -10 5 -24 5 -36 -2
-11 -6 -25 -8 -32 -4 -6 4 -25 7 -42 8 -24 1 -32 6 -34 24 -5 30 -32 29 -32
-2 0 -21 -5 -24 -42 -27 -24 -2 -60 -3 -80 -1 -31 3 -38 7 -38 25 0 32 -11 45
-45 51 l-30 6 33 -15 c38 -18 43 -51 10 -64 -26 -10 -60 0 -66 19 -3 9 4 10
29 5 23 -5 31 -4 24 3 -5 6 -19 12 -30 14 -26 4 -32 38 -9 55 23 17 35 16 60
-1z m-1246 -36 c0 -33 3 -40 20 -40 11 0 20 -4 20 -10 0 -5 -16 -10 -35 -10
l-35 0 0 50 c0 38 4 50 15 50 11 0 15 -11 15 -40z m240 30 c0 -5 -4 -10 -10
-10 -5 0 -10 5 -10 10 0 6 5 10 10 10 6 0 10 -4 10 -10z m-136 -23 c11 -8 17
-23 14 -38 -2 -19 -9 -24 -33 -24 -24 0 -31 5 -33 23 -3 22 13 52 27 52 4 0
15 -6 25 -13z m106 2 c0 -10 -25 -37 -40 -42 -10 -4 -8 -6 6 -6 30 -1 38 -28
12 -42 -25 -13 -73 4 -62 22 4 7 7 24 6 40 0 18 5 29 16 32 24 5 62 3 62 -4z
m104 -5 c21 -20 21 -64 1 -64 -10 0 -15 10 -15 30 0 17 -4 30 -10 30 -5 0 -10
-13 -10 -30 0 -20 -5 -30 -15 -30 -10 0 -15 10 -15 34 0 28 4 35 23 39 12 2
23 5 24 6 1 0 9 -6 17 -15z m-74 -29 c0 -19 -4 -35 -10 -35 -5 0 -10 16 -10
35 0 19 5 35 10 35 6 0 10 -16 10 -35z m-9626 -1075 c55 -12 89 -40 104 -86
19 -57 7 -111 -35 -153 l-34 -34 36 -81 c21 -45 39 -87 42 -93 4 -10 -10 -13
-49 -13 l-55 0 -35 83 -35 82 -41 3 -42 3 0 -85 0 -86 -55 0 -55 0 0 228 c0
126 3 232 7 235 10 10 202 8 247 -3z m1016 -74 c0 -43 1 -45 33 -48 29 -3 32
-6 35 -40 3 -37 3 -38 -32 -38 l-36 0 0 -94 0 -95 33 -3 c28 -3 32 -7 35 -35
3 -28 0 -32 -28 -38 -49 -11 -107 4 -130 32 -17 22 -20 41 -20 129 l0 104 -25
0 c-22 0 -25 4 -25 34 0 30 4 35 27 38 21 2 29 10 35 38 15 59 16 60 58 60
l40 0 0 -44z m1990 0 c0 -44 0 -45 38 -48 35 -3 37 -5 37 -38 0 -33 -2 -35
-37 -38 l-38 -3 0 -94 0 -94 38 -3 c33 -3 37 -6 40 -35 3 -28 0 -32 -28 -38
-43 -9 -109 4 -131 26 -16 16 -19 34 -19 128 l0 110 -27 3 c-23 2 -29 8 -31
36 -3 30 -1 32 27 32 31 0 33 4 46 68 6 30 10 32 46 32 l39 0 0 -44z m-2592
-73 c38 -29 61 -71 64 -123 l3 -45 -113 -3 c-112 -3 -113 -3 -106 -25 11 -37
25 -47 65 -47 28 0 42 6 51 20 18 28 98 29 98 1 0 -55 -95 -108 -176 -98 -79
9 -134 65 -142 145 -8 84 30 160 92 188 43 20 130 13 164 -13z m336 13 c36
-15 66 -50 66 -78 0 -27 -81 -25 -98 2 -15 24 -64 27 -82 5 -18 -22 -4 -33 66
-52 80 -20 93 -29 110 -69 37 -87 -50 -158 -171 -140 -52 8 -115 60 -115 95 0
32 70 30 104 -4 29 -29 67 -32 91 -9 24 24 3 41 -67 55 -79 16 -118 48 -118
98 0 20 7 47 16 60 34 47 130 66 198 37z m657 -24 c29 -32 29 -33 29 -167 l0
-135 -45 0 c-33 0 -45 4 -45 15 0 8 -4 15 -10 15 -5 0 -10 -4 -10 -9 0 -17
-60 -34 -103 -28 -78 11 -119 86 -83 156 19 35 56 52 134 59 49 4 62 8 62 21
0 42 -63 56 -95 21 -13 -14 -31 -20 -62 -20 -41 0 -44 2 -37 23 18 61 73 88
168 84 63 -3 71 -5 97 -35z m697 -9 l-3 -47 -40 -3 c-63 -4 -75 -26 -75 -144
l0 -99 -50 0 -50 0 0 165 0 165 50 0 c44 0 50 -2 50 -21 0 -20 1 -20 31 5 18
15 43 26 60 26 30 0 30 -1 27 -47z m266 37 c14 -5 34 -18 46 -30 18 -18 20
-32 20 -160 l0 -140 -45 0 c-38 0 -45 3 -45 20 0 20 0 20 -20 0 -66 -66 -200
-16 -200 74 0 69 68 116 168 116 34 0 42 3 42 18 0 43 -67 59 -93 21 -12 -16
-23 -20 -61 -17 l-46 3 17 35 c10 20 33 42 53 52 38 20 124 24 164 8z m380 -4
c59 -25 66 -45 66 -193 l0 -133 -50 0 -50 0 0 110 c0 97 -2 112 -20 130 -11
11 -27 20 -35 20 -8 0 -24 -9 -35 -20 -18 -18 -20 -33 -20 -130 l0 -110 -50 0
-50 0 0 165 0 165 49 0 c27 0 51 -5 53 -11 2 -6 14 -5 33 5 37 20 66 20 109 2z
m-1142 -123 l3 -128 33 -3 c57 -6 62 7 62 139 l0 119 55 0 55 0 0 -165 0 -165
-45 0 c-40 0 -45 3 -46 23 0 12 -3 16 -6 9 -7 -19 -58 -42 -92 -42 -43 0 -95
28 -115 60 -12 22 -16 55 -16 154 l0 126 55 0 54 0 3 -127z m-1575 -556 c85
-44 98 -145 25 -193 l-24 -16 31 -19 c38 -23 54 -61 48 -112 -11 -85 -61 -107
-237 -107 l-130 0 0 228 c0 126 3 232 8 236 14 15 244 0 279 -17z m958 -27 l0
-45 -50 0 c-49 0 -50 0 -53 33 -5 55 2 63 55 60 l48 -3 0 -45z m-221 -94 c36
-15 66 -50 66 -78 0 -27 -81 -25 -98 2 -20 33 -92 24 -92 -11 0 -12 9 -21 28
-25 87 -19 110 -28 135 -52 32 -30 37 -84 11 -121 -34 -47 -130 -65 -198 -37
-37 16 -76 60 -76 87 0 30 66 26 96 -6 36 -38 110 -31 102 11 -2 13 -21 22
-68 34 -82 20 -107 36 -121 77 -30 93 102 166 215 119z m540 0 c59 -25 66 -45
66 -193 l0 -133 -50 0 -50 0 0 112 c0 90 -3 115 -17 130 -21 24 -48 23 -73 -2
-18 -18 -20 -33 -20 -130 l0 -110 -50 0 -50 0 0 165 0 165 50 0 c36 0 50 -4
50 -14 0 -11 8 -10 37 5 44 23 63 24 107 5z m366 -4 c42 -22 80 -90 80 -144
l0 -38 -110 0 c-96 0 -110 -2 -110 -17 0 -48 87 -74 112 -33 10 15 24 20 60
20 57 0 61 -13 21 -61 -91 -108 -270 -61 -297 79 -7 42 9 117 34 152 41 58
142 78 210 42z m355 4 c30 -13 65 -58 65 -86 0 -5 -20 -10 -45 -10 -34 0 -47
5 -55 21 -16 29 -84 24 -88 -8 -3 -22 2 -25 102 -48 16 -3 41 -19 57 -35 51
-51 33 -127 -37 -156 -90 -38 -205 5 -229 84 -6 20 -3 22 36 22 32 0 47 -6 65
-25 26 -28 74 -34 94 -10 20 24 4 42 -42 50 -70 12 -118 35 -133 66 -19 35
-19 53 -1 88 29 55 134 79 211 47z m329 0 c36 -15 66 -50 66 -78 0 -27 -81
-25 -98 2 -15 24 -64 27 -82 5 -18 -22 -4 -33 66 -52 77 -20 91 -28 110 -64
61 -118 -145 -204 -251 -105 -19 18 -35 43 -35 55 0 32 70 30 104 -4 38 -38
102 -30 94 11 -2 14 -20 23 -71 36 -84 20 -117 47 -117 98 0 44 23 78 64 96
41 17 108 18 150 0z m-2084 -114 c0 -130 5 -142 57 -142 46 0 53 21 53 149 l0
111 50 0 50 0 0 -165 0 -165 -39 0 c-27 0 -41 5 -45 16 -6 15 -8 15 -27 -2
-30 -27 -118 -26 -156 2 -46 34 -53 59 -53 192 l0 122 55 0 55 0 0 -118z m720
-47 l0 -165 -50 0 -50 0 0 165 0 165 50 0 50 0 0 -165z m1890 -574 l0 -88 40
19 c51 26 102 18 142 -22 l28 -28 0 -136 0 -136 -50 0 -50 0 0 114 c0 91 -3
118 -16 130 -21 22 -50 20 -74 -4 -18 -18 -20 -33 -20 -130 l0 -110 -50 0 -50
0 0 240 0 240 50 0 50 0 0 -89z m-2853 56 c85 -44 98 -145 25 -193 l-24 -16
31 -19 c38 -23 54 -61 48 -112 -11 -85 -61 -107 -237 -107 l-130 0 0 228 c0
126 3 232 8 236 14 15 244 0 279 -17z m508 -27 l0 -45 -50 0 c-49 0 -50 0 -53
33 -5 55 2 63 55 60 l48 -3 0 -45z m1343 3 l3 -43 -65 0 -66 0 0 -190 0 -190
-55 0 -55 0 0 190 0 190 -70 0 -70 0 0 38 c0 21 3 42 7 46 4 3 88 5 187 4
l181 -3 3 -42z m860 0 l3 -43 -70 0 -71 0 0 -190 0 -190 -50 0 -50 0 0 190 0
190 -70 0 -70 0 0 38 c0 21 3 42 7 46 4 3 88 5 187 4 l181 -3 3 -42z m-1398
-113 c0 -36 -2 -40 -25 -40 -22 0 -25 -4 -25 -35 0 -71 -61 -115 -160 -115
-83 0 -56 -17 36 -23 64 -4 93 -10 113 -24 59 -44 61 -107 3 -151 -31 -24 -45
-27 -131 -30 -85 -3 -101 -1 -141 20 -37 19 -46 28 -48 55 -3 28 2 36 30 53
18 11 27 20 20 20 -7 0 -18 12 -24 26 -11 24 -9 29 15 50 l27 23 -26 38 c-41
61 -23 111 51 144 46 21 101 24 156 8 30 -10 45 -9 76 4 53 22 53 22 53 -23z
m-952 -16 c-3 -46 -3 -46 -42 -49 -63 -4 -76 -28 -76 -146 l0 -99 -50 0 -50 0
0 165 0 165 50 0 c44 0 50 -2 50 -21 0 -20 1 -20 31 5 18 15 43 26 60 26 30 0
30 -1 27 -46z m486 21 c38 -25 46 -58 46 -190 l0 -125 -55 0 -55 0 0 120 c0
118 0 121 -25 132 -19 9 -29 8 -50 -6 -24 -16 -25 -19 -25 -131 l0 -115 -55 0
-55 0 0 165 0 165 55 0 c30 0 55 -4 55 -10 0 -5 15 -2 33 6 37 16 97 11 131
-11z m1243 -1 c55 -41 68 -70 68 -149 0 -59 -4 -79 -21 -101 -40 -54 -70 -69
-139 -69 -68 0 -99 15 -138 67 -22 29 -33 100 -23 152 8 43 49 94 91 112 41
20 129 13 162 -12z m1267 12 c48 -20 79 -69 84 -133 l4 -53 -111 0 c-119 0
-126 -4 -95 -48 20 -29 77 -30 101 -2 19 22 103 29 103 9 0 -26 -38 -71 -75
-89 -53 -25 -108 -25 -159 0 -61 30 -80 63 -84 145 -3 60 0 75 20 105 50 74
132 100 212 66z m-2854 -161 l0 -165 -50 0 -50 0 0 165 0 165 50 0 50 0 0
-165z m2330 -679 c0 -164 3 -197 16 -210 8 -9 22 -16 30 -16 20 0 19 -56 -2
-64 -45 -17 -116 4 -133 40 -7 16 -11 99 -11 234 l0 210 50 0 50 0 0 -194z
m-2923 43 l98 -141 5 138 5 139 50 0 50 0 3 -232 2 -233 -48 0 -48 0 -100 144
-99 144 -3 -144 -3 -144 -54 0 -55 0 0 228 c0 126 3 232 7 235 3 4 26 7 49 7
l43 0 98 -141z m1521 -56 l2 -193 100 0 100 0 0 -40 0 -40 -150 0 -150 0 0
236 0 235 48 -3 47 -3 3 -192z m-388 113 c0 -44 0 -45 38 -48 35 -3 37 -5 37
-38 0 -33 -2 -35 -37 -38 l-38 -3 0 -94 0 -94 38 -3 c32 -3 37 -7 40 -30 2
-19 -3 -30 -19 -38 -31 -17 -108 -5 -136 22 -21 20 -23 30 -23 129 l0 108 -27
3 c-23 2 -29 8 -31 36 -3 30 -1 32 27 32 26 0 31 5 40 38 6 20 11 43 11 50 0
7 15 12 40 12 l40 0 0 -44z m-602 -73 c38 -29 61 -71 64 -123 l3 -45 -113 -3
c-112 -3 -113 -3 -106 -25 11 -37 25 -47 65 -47 28 0 42 6 51 20 10 15 24 20
55 20 37 0 43 -3 43 -21 0 -29 -50 -75 -97 -89 -86 -26 -178 13 -209 87 -37
87 2 203 81 240 42 19 129 12 163 -14z m1472 9 c42 -22 80 -90 80 -144 l0 -38
-110 0 c-96 0 -110 -2 -110 -17 0 -48 87 -74 112 -33 10 15 24 20 60 20 57 0
61 -13 21 -61 -91 -108 -271 -60 -297 79 -7 42 9 117 34 152 41 58 142 78 210
42z m674 4 c48 -20 79 -69 84 -133 l4 -53 -111 0 c-119 0 -126 -4 -95 -48 20
-29 77 -30 101 -2 19 22 103 29 103 9 0 -26 -38 -71 -75 -89 -53 -25 -108 -25
-159 0 -61 30 -80 63 -84 145 -3 60 0 75 20 105 50 74 132 100 212 66z m-1928
-36 c15 -22 29 -40 33 -40 3 1 18 19 33 40 27 38 30 40 83 40 l55 0 -55 -74
c-30 -41 -55 -79 -55 -84 0 -5 15 -29 33 -53 18 -24 46 -61 61 -81 l28 -38
-55 0 c-55 0 -56 0 -92 50 l-37 51 -36 -51 c-35 -50 -35 -50 -89 -50 -62 0
-63 -8 15 99 l54 73 -19 27 c-11 14 -37 50 -57 79 l-38 52 56 0 c54 0 57 -1
82 -40z m1478 -52 c17 -49 34 -88 37 -88 3 0 18 41 34 90 l29 90 49 0 c57 0
59 21 -18 -185 l-53 -140 -42 0 -42 0 -53 140 c-77 207 -75 187 -19 183 l47
-3 31 -87z m-2434 -1684 l14 -25 13 25 c8 15 18 26 23 26 13 0 12 -10 -5 -40
-8 -14 -14 -37 -15 -52 0 -18 -5 -28 -15 -28 -10 0 -15 10 -15 28 -1 15 -7 38
-15 52 -17 29 -18 40 -7 40 5 0 15 -11 22 -26z m1590 5 c0 -11 4 -18 9 -15 22
14 41 -7 41 -45 0 -47 -17 -52 -22 -7 -4 46 -28 49 -28 4 0 -25 -4 -36 -15
-36 -12 0 -15 13 -15 60 0 47 3 60 15 60 8 0 15 -9 15 -21z m90 11 c0 -5 -4
-10 -10 -10 -5 0 -10 5 -10 10 0 6 5 10 10 10 6 0 10 -4 10 -10z m470 0 c0 -5
-7 -10 -15 -10 -8 0 -15 5 -15 10 0 6 7 10 15 10 8 0 15 -4 15 -10z m440 -49
c0 -55 -1 -59 -26 -64 -18 -3 -33 2 -45 14 -15 15 -19 16 -19 4 0 -11 -11 -15
-41 -15 -36 0 -40 2 -37 23 2 14 11 23 26 25 12 2 22 8 22 13 0 5 -12 6 -27 3
-25 -7 -27 -6 -14 9 17 22 47 22 59 0 9 -16 11 -16 27 0 9 9 23 17 31 17 8 0
14 7 14 15 0 8 7 15 15 15 12 0 15 -13 15 -59z m200 49 c0 -5 -5 -10 -11 -10
-8 0 -8 -5 1 -15 9 -10 9 -15 1 -15 -6 0 -11 -16 -11 -35 0 -23 -5 -35 -14
-35 -18 0 -27 78 -12 103 11 18 46 24 46 7z m560 -10 c0 -13 5 -18 15 -14 23
9 45 -15 45 -47 0 -32 -21 -48 -56 -41 -22 4 -24 9 -24 63 0 33 4 59 10 59 6
0 10 -9 10 -20z m1345 10 c3 -5 -1 -10 -10 -10 -9 0 -13 5 -10 10 3 6 8 10 10
10 2 0 7 -4 10 -10z m105 -11 c0 -11 4 -17 10 -14 19 12 40 -16 40 -51 0 -43
-18 -45 -22 -2 -4 46 -28 49 -28 4 0 -25 -4 -36 -15 -36 -12 0 -15 13 -15 60
0 47 3 60 15 60 8 0 15 -9 15 -21z m-3842 -9 c7 -12 8 -20 2 -20 -15 0 -12
-57 3 -63 6 -3 2 -6 -10 -6 -19 -1 -23 4 -23 32 0 31 -2 33 -35 33 -19 0 -35
-4 -35 -8 0 -4 6 -8 14 -8 7 0 20 -7 27 -16 11 -14 11 -18 -4 -29 -22 -16 -57
-8 -57 12 0 13 3 13 15 3 11 -9 19 -10 26 -3 7 7 2 12 -15 17 -17 4 -26 13
-26 26 0 23 36 36 55 20 11 -9 17 -7 27 9 16 26 20 26 36 1z m481 -18 c-13 -5
-11 -46 3 -60 9 -9 7 -12 -9 -12 -17 0 -22 7 -25 43 -6 51 8 76 28 50 7 -10 8
-19 3 -21z m100 0 c-13 -5 -11 -46 3 -60 9 -9 7 -12 -9 -12 -17 0 -22 7 -25
43 -6 51 8 76 28 50 7 -10 8 -19 3 -21z m2700 0 c-13 -5 -11 -46 4 -61 10 -10
8 -12 -8 -9 -23 4 -37 62 -21 90 9 15 11 15 22 0 7 -9 8 -18 3 -20z m510 0
c-13 -5 -11 -46 4 -61 10 -10 8 -12 -8 -9 -23 4 -37 62 -21 90 9 15 11 15 22
0 7 -9 8 -18 3 -20z m-4628 8 c20 -11 25 -45 10 -68 -5 -8 -21 -12 -37 -10
-23 2 -30 8 -32 31 -3 28 12 57 30 57 5 0 18 -5 29 -10z m109 -39 c0 -33 -4
-39 -24 -43 -37 -7 -56 9 -56 47 0 44 18 46 22 3 4 -48 32 -44 36 5 4 48 22
38 22 -12z m118 37 c7 -7 12 -27 12 -46 0 -32 -1 -33 -37 -30 -30 2 -38 7 -38
23 0 13 8 21 23 23 12 2 22 8 22 13 0 5 -12 6 -27 3 -25 -7 -27 -6 -14 9 16
20 42 22 59 5z m72 6 c0 -3 -7 -12 -15 -20 -8 -9 -15 -26 -15 -40 0 -13 -4
-24 -10 -24 -10 0 -15 72 -5 81 6 7 45 9 45 3z m78 -7 c15 -18 10 -66 -7 -76
-16 -10 -42 -3 -53 13 -29 43 28 102 60 63z m132 -6 c5 -11 10 -31 10 -45 0
-24 -4 -26 -41 -26 -36 0 -40 2 -37 23 2 14 11 23 26 25 12 2 22 8 22 13 0 5
-12 6 -27 3 -25 -7 -27 -6 -14 9 18 23 48 21 61 -2z m110 10 c0 -5 -7 -11 -15
-15 -9 -3 -15 -18 -15 -36 0 -16 -4 -30 -10 -30 -5 0 -10 18 -10 39 0 29 5 41
18 44 28 8 32 7 32 -2z m75 -7 c9 -9 14 -23 11 -31 -3 -8 -6 -20 -6 -28 0 -22
-40 -25 -61 -4 -23 23 -23 28 -3 57 18 26 37 28 59 6z m235 -3 c5 -11 10 -31
10 -45 0 -24 -4 -26 -41 -26 -36 0 -40 2 -37 23 2 14 11 23 26 25 12 2 22 8
22 13 0 5 -12 6 -27 3 -25 -7 -27 -6 -14 9 18 23 48 21 61 -2z m90 -25 c0 -34
-4 -45 -19 -49 -31 -8 -51 11 -51 48 0 44 18 46 22 3 4 -39 22 -44 26 -8 8 63
22 67 22 6z m75 34 c4 -6 14 -4 25 3 30 18 54 -2 58 -47 l3 -37 -38 3 c-30 2
-38 7 -38 23 0 13 8 21 23 23 36 5 25 17 -18 18 -39 1 -40 1 -40 -32 0 -24 -5
-34 -15 -34 -11 0 -15 11 -15 38 0 21 2 41 5 43 8 9 45 8 50 -1z m162 -2 c15
-12 18 -78 4 -78 -6 0 -11 15 -13 33 -2 20 -8 32 -18 32 -10 0 -16 -12 -18
-32 -2 -18 -7 -33 -13 -33 -9 0 -13 72 -4 81 9 10 50 8 62 -3z m381 -7 c3 -9
-2 -11 -17 -6 -28 9 -27 -8 2 -20 33 -15 28 -39 -10 -43 -26 -3 -33 0 -33 14
0 14 3 15 12 6 14 -14 28 -16 28 -3 0 5 -9 13 -20 16 -20 6 -27 35 -13 49 11
11 46 2 51 -13z m113 9 c20 -11 25 -45 10 -68 -5 -8 -21 -12 -37 -10 -23 2
-30 8 -32 31 -3 28 12 57 30 57 5 0 18 -5 29 -10z m102 2 c10 -3 9 -82 -2 -82
-6 0 -11 14 -13 32 -4 46 -28 49 -28 4 0 -25 -4 -36 -15 -36 -11 0 -15 11 -15
38 0 21 2 41 5 44 5 4 45 4 68 0z m81 2 c24 -9 21 -71 -4 -84 -15 -8 -24 -6
-40 10 -24 24 -25 43 -4 64 17 18 24 19 48 10z m96 -45 c0 -28 -4 -39 -15 -39
-11 0 -15 11 -15 38 0 21 3 42 6 45 14 13 24 -6 24 -44z m64 45 c26 -10 18
-25 -9 -18 -14 3 -25 3 -25 0 0 -4 11 -11 25 -16 30 -11 33 -45 5 -53 -21 -5
-59 17 -48 29 4 4 14 1 23 -6 9 -7 19 -9 23 -5 4 4 2 10 -4 12 -6 2 -20 10
-30 17 -15 12 -16 16 -5 30 15 18 21 19 45 10z m184 -7 c18 -12 16 -77 -3 -77
-10 0 -15 11 -15 35 0 19 -4 35 -10 35 -5 0 -10 -16 -10 -35 0 -24 -5 -35 -15
-35 -10 0 -15 11 -15 35 0 19 -4 35 -10 35 -5 0 -10 -16 -10 -35 0 -24 -5 -35
-15 -35 -11 0 -15 11 -15 38 0 21 2 41 5 44 8 8 99 4 113 -5z m270 0 c15 -18
10 -66 -7 -76 -16 -10 -42 -3 -53 13 -29 43 28 102 60 63z m188 5 c24 -15 26
-50 4 -72 -19 -19 -24 -20 -43 -7 -28 18 -33 50 -12 71 18 17 34 20 51 8z m84
-2 c0 -4 -7 -10 -15 -14 -9 -3 -15 -18 -15 -36 0 -16 -4 -30 -10 -30 -5 0 -10
19 -10 43 0 38 2 42 25 43 14 1 25 -2 25 -6z m70 -17 c12 -27 13 -27 20 -7 13
33 34 43 27 12 -15 -59 -38 -98 -57 -98 -11 0 -20 5 -20 10 0 6 7 10 15 10 8
0 15 4 15 9 0 5 -7 25 -15 44 -17 42 -18 47 -7 47 5 0 15 -12 22 -27z m121 17
c28 -16 26 -68 -3 -79 -33 -12 -58 4 -58 37 0 27 16 52 33 52 4 0 17 -5 28
-10z m69 -65 c10 0 16 12 18 38 4 48 22 38 22 -12 0 -33 -4 -39 -24 -43 -37
-7 -56 9 -56 46 0 48 14 54 20 9 3 -25 10 -38 20 -38z m284 69 c24 -9 21 -71
-4 -84 -15 -8 -24 -6 -40 10 -24 24 -25 43 -4 64 17 18 24 19 48 10z m96 -9
c7 -9 9 -19 5 -23 -4 -4 -10 -1 -12 6 -7 17 -30 15 -37 -4 -9 -24 13 -47 31
-33 7 7 17 9 21 5 4 -4 -2 -14 -12 -22 -40 -29 -86 34 -51 70 21 20 39 20 55
1z m81 5 c28 -16 26 -68 -3 -79 -33 -12 -58 4 -58 37 0 27 16 52 33 52 4 0 17
-5 28 -10z m147 -3 c18 -12 16 -77 -3 -77 -10 0 -15 11 -15 35 0 19 -4 35 -10
35 -5 0 -10 -16 -10 -35 0 -24 -5 -35 -15 -35 -10 0 -15 11 -15 35 0 19 -4 35
-10 35 -5 0 -10 -16 -10 -35 0 -24 -5 -35 -15 -35 -11 0 -15 11 -15 38 0 21 2
41 5 44 8 8 99 4 113 -5z m90 1 c15 -20 11 -68 -7 -77 -28 -15 -61 5 -61 37 0
45 43 70 68 40z m130 0 c30 -30 2 -94 -35 -81 -7 3 -13 -2 -13 -11 0 -9 -4
-16 -10 -16 -5 0 -10 24 -10 54 0 44 4 55 18 59 30 8 38 7 50 -5z m90 0 c7 -7
12 -26 12 -44 0 -26 -5 -33 -25 -36 -14 -3 -32 0 -42 7 -21 16 -10 45 17 45
11 0 20 5 20 10 0 6 -11 8 -27 4 -25 -7 -27 -6 -14 9 16 20 42 22 59 5z m72 3
c0 -5 -7 -11 -15 -15 -9 -3 -15 -18 -15 -36 0 -16 -4 -30 -10 -30 -5 0 -10 18
-10 39 0 29 5 41 18 44 28 8 32 7 32 -2z m138 -3 c14 -14 16 -78 3 -78 -6 0
-11 14 -13 32 -4 46 -28 49 -28 4 0 -25 -4 -36 -15 -36 -23 0 -21 77 3 83 30
8 38 7 50 -5z m90 0 c20 -20 14 -38 -13 -38 -26 0 -33 -14 -15 -25 6 -4 18 -1
27 7 14 11 16 11 11 -2 -7 -22 -50 -25 -65 -4 -17 23 -16 39 3 58 19 19 36 20
52 4z m82 3 c0 -5 -7 -11 -15 -15 -9 -3 -15 -18 -15 -36 0 -16 -4 -30 -10 -30
-5 0 -10 18 -10 39 0 29 5 41 18 44 28 8 32 7 32 -2z m-2820 -41 c0 -22 -4
-40 -10 -40 -5 0 -10 18 -10 40 0 22 5 40 10 40 6 0 10 -18 10 -40z m2890 18
l9 -23 7 23 c3 12 10 22 15 22 6 0 14 -10 19 -22 l9 -23 7 23 c6 21 24 31 24
13 0 -19 -23 -71 -31 -71 -5 0 -13 10 -18 22 l-8 23 -7 -23 c-10 -32 -27 -23
-42 21 -14 40 0 53 16 15z m130 -18 c0 -29 -4 -40 -15 -40 -17 0 -18 4 -9 49
9 44 24 39 24 -9z m-1420 -24 c0 -2 -3 -11 -6 -20 -9 -23 -24 -20 -24 4 0 11
7 20 15 20 8 0 15 -2 15 -4z m-3220 -146 c0 -5 -9 -10 -20 -10 -17 0 -18 -5
-13 -50 5 -42 3 -50 -11 -50 -13 0 -16 10 -16 50 0 44 -3 50 -21 50 -11 0 -17
5 -14 10 3 6 26 10 51 10 24 0 44 -4 44 -10z m110 -11 c0 -11 4 -18 9 -15 22
14 41 -7 41 -45 0 -47 -17 -52 -22 -7 -4 46 -28 49 -28 4 0 -25 -4 -36 -15
-36 -12 0 -15 13 -15 60 0 47 3 60 15 60 8 0 15 -9 15 -21z m270 11 c0 -5 -4
-10 -10 -10 -5 0 -10 5 -10 10 0 6 5 10 10 10 6 0 10 -4 10 -10z m70 -5 c-10
-12 -8 -16 13 -24 13 -5 27 -18 31 -28 7 -16 10 -14 23 12 24 44 27 15 5 -41
-14 -34 -26 -50 -41 -52 -11 -2 -21 1 -21 7 0 6 7 11 15 11 18 0 18 4 3 47
-16 44 -38 43 -38 -2 0 -24 -5 -35 -15 -35 -10 0 -15 11 -15 35 0 19 -5 35
-10 35 -6 0 -3 11 6 25 9 14 25 25 36 25 17 0 18 -3 8 -15z m400 -44 c0 -54
-2 -59 -24 -63 -35 -7 -56 9 -56 41 0 32 22 56 45 47 10 -4 15 1 15 14 0 11 5
20 10 20 6 0 10 -26 10 -59z m450 49 c0 -5 -4 -10 -10 -10 -5 0 -10 5 -10 10
0 6 5 10 10 10 6 0 10 -4 10 -10z m42 -50 c2 -43 -1 -60 -9 -60 -9 0 -13 19
-13 60 0 78 17 78 22 0z m50 0 c2 -43 -1 -60 -9 -60 -9 0 -13 19 -13 60 0 78
17 78 22 0z m88 39 c0 -11 4 -18 9 -15 22 14 41 -7 41 -45 0 -47 -17 -52 -22
-7 -4 46 -28 49 -28 4 0 -25 -4 -36 -15 -36 -12 0 -15 13 -15 60 0 47 3 60 15
60 8 0 15 -9 15 -21z m182 -39 c2 -43 -1 -60 -9 -60 -9 0 -13 19 -13 60 0 78
17 78 22 0z m728 1 c0 -55 -1 -59 -26 -64 -28 -5 -64 21 -64 47 0 19 27 46 46
46 8 0 14 7 14 15 0 8 7 15 15 15 12 0 15 -13 15 -59z m290 11 c0 -26 6 -54
13 -61 10 -10 8 -12 -8 -9 -17 3 -20 12 -23 61 -2 35 1 57 8 57 5 0 10 -21 10
-48z m640 28 c0 -13 5 -18 15 -14 23 9 45 -15 45 -47 0 -32 -21 -48 -56 -41
-22 4 -24 9 -24 63 0 33 4 59 10 59 6 0 10 -9 10 -20z m270 10 c0 -5 -4 -10
-10 -10 -5 0 -10 5 -10 10 0 6 5 10 10 10 6 0 10 -4 10 -10z m-1431 -38 c-13
-5 -11 -46 3 -60 9 -9 7 -12 -9 -12 -17 0 -22 7 -25 43 -6 51 8 76 28 50 7
-10 8 -19 3 -21z m-2105 12 c17 -7 22 -34 6 -34 -5 0 -10 5 -10 10 0 6 -7 10
-15 10 -9 0 -15 -9 -15 -23 0 -31 10 -40 27 -25 7 6 17 8 21 4 4 -4 -2 -14
-12 -21 -38 -28 -78 20 -51 61 16 25 23 28 49 18z m182 -2 c24 -15 26 -50 4
-72 -19 -19 -24 -20 -43 -7 -28 18 -33 50 -12 71 18 17 34 20 51 8z m107 -13
c5 -9 7 -28 3 -42 -5 -20 -13 -27 -31 -27 -16 0 -25 -6 -25 -15 0 -8 -4 -15
-10 -15 -6 0 -10 26 -10 58 l0 58 31 -1 c18 0 36 -7 42 -16z m37 -24 c0 -25
-4 -45 -10 -45 -11 0 -14 73 -3 83 11 12 13 8 13 -38z m264 39 c11 -4 16 -19
16 -44 0 -32 -4 -38 -26 -43 -32 -6 -60 19 -43 39 6 8 20 14 30 14 11 0 19 5
19 11 0 7 -10 9 -25 5 -25 -6 -36 8 -12 17 18 8 23 8 41 1z m100 -10 c21 -20
21 -74 1 -74 -11 0 -15 11 -15 36 0 45 -24 42 -28 -4 -5 -46 -22 -40 -22 7 0
38 5 44 42 50 4 0 14 -6 22 -15z m187 -28 c0 -6 4 -1 9 12 12 28 27 28 36 0
l7 -23 8 23 c14 39 28 25 17 -18 -12 -45 -29 -51 -46 -17 l-11 22 0 -22 c-1
-13 -7 -23 -15 -23 -14 0 -36 49 -36 79 1 13 3 13 15 -3 8 -11 15 -25 16 -30z
m153 38 c24 -9 21 -71 -4 -84 -15 -8 -24 -6 -40 10 -24 24 -25 43 -4 64 17 18
24 19 48 10z m97 -38 c0 -6 4 -1 9 12 12 28 27 28 36 0 l7 -23 8 23 c14 39 28
25 17 -18 -12 -45 -29 -51 -46 -17 l-11 22 0 -22 c-1 -13 -7 -23 -15 -23 -14
0 -36 49 -36 79 1 13 3 13 15 -3 8 -11 15 -25 16 -30z m423 38 c24 -9 21 -71
-4 -84 -15 -8 -24 -6 -40 10 -24 24 -25 43 -4 64 17 18 24 19 48 10z m157 -15
c20 -31 5 -69 -27 -69 -15 0 -24 -6 -24 -15 0 -8 -7 -15 -15 -15 -11 0 -15 13
-15 53 0 30 2 56 5 59 10 10 67 1 76 -13z m111 -45 c-14 -34 -26 -50 -41 -52
-11 -2 -21 1 -21 7 0 6 7 11 15 11 19 0 19 8 0 54 -16 39 -3 50 16 14 12 -21
12 -21 27 8 23 44 26 14 4 -42z m92 50 c22 -22 20 -50 -6 -68 -41 -29 -81 17
-53 60 18 28 37 30 59 8z m96 -28 c0 -34 -4 -45 -19 -49 -31 -8 -51 11 -51 48
0 44 18 46 22 3 4 -39 22 -44 26 -8 8 63 22 67 22 6z m181 34 c20 -11 25 -45
10 -68 -5 -8 -21 -12 -37 -10 -23 2 -30 8 -32 31 -3 28 12 57 30 57 5 0 18 -5
29 -10z m227 -3 c15 -18 10 -66 -7 -76 -16 -10 -42 -3 -53 13 -29 43 28 102
60 63z m52 -36 c1 -9 7 -1 16 18 8 19 17 31 21 28 10 -11 -19 -87 -33 -87 -12
0 -34 51 -34 79 1 13 3 13 15 -3 8 -11 15 -27 15 -35z m118 37 c15 -20 11 -68
-7 -77 -28 -15 -61 5 -61 37 0 45 43 70 68 40z m128 4 c24 -15 26 -50 4 -72
-19 -19 -24 -20 -43 -7 -28 18 -33 50 -12 71 18 17 34 20 51 8z m102 -4 c18
-16 15 -66 -5 -76 -10 -5 -24 -7 -30 -5 -7 3 -13 -2 -13 -11 0 -9 -4 -16 -10
-16 -6 0 -10 26 -10 58 0 55 1 57 28 59 15 1 33 -3 40 -9z m84 -19 l11 -31 15
33 c10 23 16 29 19 18 6 -24 -34 -109 -52 -109 -18 0 -20 17 -3 22 9 3 8 14
-4 46 -14 36 -14 52 -1 52 2 0 9 -14 15 -31z m126 19 c31 -31 2 -94 -38 -80
-45 15 -37 92 10 92 9 0 21 -5 28 -12z m55 -64 c13 -13 27 9 27 42 0 21 4 33
10 29 6 -3 10 -23 10 -44 0 -33 -4 -39 -24 -43 -37 -7 -56 9 -56 46 0 47 14
54 21 12 3 -20 9 -39 12 -42z m117 66 c0 -4 -7 -10 -15 -14 -9 -3 -15 -18 -15
-36 0 -16 -4 -30 -10 -30 -5 0 -10 19 -10 43 0 38 2 42 25 43 14 1 25 -2 25
-6z m173 -66 c12 -12 27 8 27 37 0 16 5 29 10 29 6 0 10 -17 10 -39 0 -33 -4
-39 -24 -43 -37 -7 -56 9 -56 46 0 47 14 54 21 12 3 -20 9 -39 12 -42z m125
57 c3 -9 -2 -11 -17 -6 -28 8 -27 -7 1 -20 29 -13 34 -31 11 -43 -22 -12 -67
3 -58 19 5 8 10 8 18 0 13 -13 27 -14 27 -2 0 5 -9 13 -20 16 -20 6 -27 35
-13 49 11 11 46 2 51 -13z m132 -1 c16 -24 12 -70 -5 -70 -11 0 -15 11 -15 36
0 45 -24 42 -28 -4 -5 -47 -22 -39 -22 11 0 41 1 43 30 42 17 0 35 -7 40 -15z
m88 8 c15 -20 11 -68 -7 -77 -28 -15 -61 5 -61 37 0 45 43 70 68 40z m76 6
c26 -10 18 -25 -9 -18 -14 3 -25 3 -25 0 0 -4 11 -11 25 -16 30 -11 33 -45 5
-53 -21 -6 -59 17 -47 29 4 4 13 2 19 -4 15 -15 28 -16 28 -2 0 6 -6 10 -14
10 -7 0 -19 7 -26 15 -10 12 -10 18 0 30 14 17 21 18 44 9z m80 0 c26 -10 18
-25 -9 -18 -14 3 -25 3 -25 0 0 -4 11 -11 25 -16 30 -11 33 -45 5 -53 -21 -6
-59 17 -47 29 4 4 13 2 19 -4 15 -15 28 -16 28 -2 0 6 -6 10 -14 10 -7 0 -19
7 -26 15 -10 12 -10 18 0 30 14 17 21 18 44 9z m-2624 -44 c0 -22 -4 -40 -10
-40 -5 0 -10 18 -10 40 0 22 5 40 10 40 6 0 10 -18 10 -40z m2290 0 c0 -22 -4
-40 -10 -40 -5 0 -10 18 -10 40 0 22 5 40 10 40 6 0 10 -18 10 -40z m380 -30
c0 -5 -4 -10 -10 -10 -5 0 -10 5 -10 10 0 6 5 10 10 10 6 0 10 -4 10 -10z
m-3763 -660 c-6 -27 -4 -30 18 -30 38 0 38 -15 3 -69 -38 -58 -64 -68 -54 -21
5 27 3 30 -19 30 -37 0 -37 12 1 68 39 59 60 68 51 22z m993 -49 c0 -55 -2
-59 -25 -63 -36 -7 -57 12 -53 47 2 22 9 31 26 33 14 2 22 10 22 23 0 10 7 19
15 19 12 0 15 -13 15 -59z m-740 34 c18 -21 4 -32 -21 -17 -25 16 -39 8 -39
-23 0 -28 17 -42 33 -26 8 8 8 11 -1 11 -7 0 -12 5 -12 10 0 6 11 10 25 10 21
0 25 -5 25 -29 0 -23 -5 -30 -27 -34 -41 -8 -73 16 -73 56 0 18 5 38 12 45 17
17 63 15 78 -3z m290 0 c10 -11 16 -12 26 -4 10 8 18 7 31 -7 13 -12 14 -19 5
-22 -14 -4 -16 -42 -2 -42 6 0 10 -5 10 -11 0 -6 -10 -9 -22 -7 -16 2 -24 12
-28 31 -3 17 -16 33 -34 42 -33 17 -36 18 -36 7 0 -4 14 -13 30 -19 39 -15 41
-49 4 -64 -20 -7 -32 -6 -50 6 -33 22 -30 28 11 21 19 -4 35 -3 35 2 0 5 -13
12 -30 16 -23 4 -30 11 -30 29 0 13 3 27 7 30 12 13 60 7 73 -8z m-139 -2 c1
-5 2 -27 3 -50 2 -36 -1 -43 -16 -43 -13 0 -18 8 -18 30 0 17 -4 30 -10 30 -5
0 -10 -11 -10 -25 0 -47 -65 -54 -76 -9 -9 35 12 55 54 52 21 -1 37 3 40 10 4
13 31 17 33 5z m407 -10 c12 -12 13 -18 4 -21 -14 -4 -16 -42 -2 -42 6 0 10
-5 10 -11 0 -6 -10 -9 -22 -7 -16 2 -24 11 -26 29 -2 21 -7 26 -23 22 -12 -3
-19 -14 -19 -29 0 -15 -6 -24 -15 -24 -11 0 -15 11 -15 40 0 39 1 40 34 40 19
0 38 5 41 10 8 14 14 13 33 -7z m-118 -42 c0 -33 -4 -39 -24 -43 -34 -7 -46 4
-44 38 2 41 5 44 39 44 27 0 29 -3 29 -39z m208 4 c6 -53 -61 -71 -74 -19 -8
32 13 56 45 52 20 -2 27 -9 29 -33z m118 -698 c2 -1 -2 -22 -8 -45 -15 -60
-56 -92 -116 -92 l-47 0 28 18 27 18 -25 24 c-14 13 -25 34 -25 46 0 22 1 22
28 8 34 -17 52 -18 52 -1 0 24 24 39 54 33 16 -4 31 -7 32 -9z"/>
<path d="M14370 8750 c0 -16 4 -30 9 -30 5 0 7 9 4 20 -3 12 0 20 6 20 7 0 9
5 6 10 -12 20 -25 9 -25 -20z"/>
<path d="M14743 8744 c-8 -22 4 -29 21 -11 14 13 14 16 0 21 -8 3 -17 -1 -21
-10z"/>
<path d="M14941 8734 c0 -11 3 -14 6 -6 3 7 2 16 -1 19 -3 4 -6 -2 -5 -13z"/>
<path d="M15060 8735 c0 -8 5 -15 10 -15 6 0 10 7 10 15 0 8 -4 15 -10 15 -5
0 -10 -7 -10 -15z"/>
<path d="M13514 8746 c-4 -10 -2 -22 4 -28 8 -8 13 -7 18 6 4 10 2 22 -4 28
-8 8 -13 7 -18 -6z"/>
<path d="M13595 8750 c4 -6 11 -8 16 -5 14 9 11 15 -7 15 -8 0 -12 -5 -9 -10z"/>
<path d="M13598 8693 c7 -3 16 -2 19 1 4 3 -2 6 -13 5 -11 0 -14 -3 -6 -6z"/>
<path d="M3910 7520 l0 -72 55 4 c63 5 95 28 95 68 0 47 -21 63 -89 68 l-61 4
0 -72z"/>
<path d="M4331 7444 c-12 -15 -21 -31 -21 -35 0 -5 29 -9 65 -9 36 0 65 3 65
6 0 11 -23 49 -34 56 -22 15 -55 7 -75 -18z"/>
<path d="M5340 7351 c-20 -4 -41 -11 -48 -15 -15 -9 -16 -48 0 -64 18 -18 63
-14 81 6 17 18 24 83 10 81 -5 -1 -24 -4 -43 -8z"/>
<path d="M6342 7349 c-44 -6 -62 -20 -62 -49 0 -41 64 -55 94 -21 10 11 16 31
14 48 -3 27 -5 28 -46 22z"/>
<path d="M3910 6735 l0 -55 59 0 c62 0 91 15 91 48 -1 39 -39 62 -104 62 l-46
0 0 -55z"/>
<path d="M3910 6535 l0 -55 56 0 c74 0 94 12 94 55 0 43 -20 55 -94 55 l-56 0
0 -55z"/>
<path d="M5610 6650 c-37 -37 -26 -50 40 -50 47 0 60 3 60 15 0 22 -37 55 -60
55 -11 0 -29 -9 -40 -20z"/>
<path d="M3910 5935 l0 -55 59 0 c62 0 91 15 91 48 -1 39 -39 62 -104 62 l-46
0 0 -55z"/>
<path d="M3910 5735 l0 -55 56 0 c74 0 94 12 94 55 0 43 -20 55 -94 55 l-56 0
0 -55z"/>
<path d="M5162 5868 c-7 -7 -12 -24 -12 -38 0 -14 5 -31 12 -38 7 -7 24 -12
38 -12 14 0 31 5 38 12 7 7 12 24 12 38 0 14 -5 31 -12 38 -7 7 -24 12 -38 12
-14 0 -31 -5 -38 -12z"/>
<path d="M5135 5606 c-16 -12 -18 -18 -9 -33 9 -15 24 -18 80 -18 64 0 69 2
72 23 4 25 -2 28 -73 36 -37 4 -57 2 -70 -8z"/>
<path d="M6035 5826 c-19 -45 -19 -77 -1 -121 12 -29 20 -35 45 -35 16 0 36 7
44 15 23 22 30 85 15 130 -12 36 -17 40 -51 43 -35 3 -39 1 -52 -32z"/>
<path d="M7330 5850 c-37 -37 -26 -50 40 -50 53 0 60 2 60 19 0 22 -35 51 -62
51 -10 0 -27 -9 -38 -20z"/>
<path d="M4391 5044 c-12 -15 -21 -31 -21 -35 0 -5 29 -9 65 -9 36 0 65 3 65
6 0 11 -23 49 -34 56 -22 15 -55 7 -75 -18z"/>
<path d="M5880 5050 c-37 -37 -26 -50 40 -50 47 0 60 3 60 15 0 22 -37 55 -60
55 -11 0 -29 -9 -40 -20z"/>
<path d="M6560 5050 c-37 -37 -26 -50 40 -50 53 0 60 2 60 19 0 22 -35 51 -62
51 -10 0 -27 -9 -38 -20z"/>
<path d="M6322 3305 c2 -14 8 -26 13 -26 6 0 11 12 13 26 2 18 -1 25 -13 25
-12 0 -15 -7 -13 -25z"/>
<path d="M6235 3289 c-4 -6 -5 -13 -2 -16 7 -7 27 6 27 18 0 12 -17 12 -25 -2z"/>
<path d="M7144 3316 c-8 -22 3 -49 19 -43 6 2 12 14 12 27 0 27 -22 39 -31 16z"/>
<path d="M3874 3316 c-8 -22 3 -49 19 -43 6 2 12 14 12 27 0 27 -22 39 -31 16z"/>
<path d="M4097 3294 c-8 -8 1 -24 14 -24 5 0 9 7 9 15 0 15 -12 20 -23 9z"/>
<path d="M4245 3320 c-3 -5 3 -10 15 -10 12 0 18 5 15 10 -3 6 -10 10 -15 10
-5 0 -12 -4 -15 -10z"/>
<path d="M4248 3278 c9 -9 15 -9 24 0 9 9 7 12 -12 12 -19 0 -21 -3 -12 -12z"/>
<path d="M4375 3289 c-4 -6 -5 -13 -2 -16 7 -7 27 6 27 18 0 12 -17 12 -25 -2z"/>
<path d="M4560 3320 c0 -5 7 -10 15 -10 8 0 15 5 15 10 0 6 -7 10 -15 10 -8 0
-15 -4 -15 -10z"/>
<path d="M4568 3278 c9 -9 15 -9 24 0 9 9 7 12 -12 12 -19 0 -21 -3 -12 -12z"/>
<path d="M4795 3289 c-4 -6 -5 -13 -2 -16 7 -7 27 6 27 18 0 12 -17 12 -25 -2z"/>
<path d="M5037 3294 c-8 -8 1 -24 14 -24 5 0 9 7 9 15 0 15 -12 20 -23 9z"/>
<path d="M5624 3316 c-8 -22 3 -49 19 -43 6 2 12 14 12 27 0 27 -22 39 -31 16z"/>
<path d="M5810 3320 c0 -5 7 -10 15 -10 8 0 15 5 15 10 0 6 -7 10 -15 10 -8 0
-15 -4 -15 -10z"/>
<path d="M5815 3280 c4 -6 11 -8 16 -5 14 9 11 15 -7 15 -8 0 -12 -5 -9 -10z"/>
<path d="M6415 3320 c-3 -5 3 -10 15 -10 12 0 18 5 15 10 -3 6 -10 10 -15 10
-5 0 -12 -4 -15 -10z"/>
<path d="M6420 3280 c0 -5 4 -10 9 -10 6 0 13 5 16 10 3 6 -1 10 -9 10 -9 0
-16 -4 -16 -10z"/>
<path d="M6607 3318 c-6 -18 12 -50 24 -43 15 10 11 55 -5 55 -8 0 -16 -6 -19
-12z"/>
<path d="M6884 3315 c-7 -18 2 -45 15 -45 12 0 24 37 16 50 -9 15 -25 12 -31
-5z"/>
<path d="M7240 3320 c0 -5 7 -10 15 -10 8 0 15 5 15 10 0 6 -7 10 -15 10 -8 0
-15 -4 -15 -10z"/>
<path d="M7245 3280 c4 -6 11 -8 16 -5 14 9 11 15 -7 15 -8 0 -12 -5 -9 -10z"/>
<path d="M7414 3315 c-7 -18 2 -45 15 -45 12 0 24 37 16 50 -9 15 -25 12 -31
-5z"/>
<path d="M7645 3320 c-3 -5 3 -10 15 -10 12 0 18 5 15 10 -3 6 -10 10 -15 10
-5 0 -12 -4 -15 -10z"/>
<path d="M7648 3278 c9 -9 15 -9 24 0 9 9 7 12 -12 12 -19 0 -21 -3 -12 -12z"/>
<path d="M7774 3316 c-8 -22 3 -49 19 -43 6 2 12 14 12 27 0 27 -22 39 -31 16z"/>
<path d="M7865 3291 c-6 -11 9 -23 19 -14 9 9 7 23 -3 23 -6 0 -12 -4 -16 -9z"/>
<path d="M8170 3320 c0 -5 7 -10 15 -10 8 0 15 5 15 10 0 6 -7 10 -15 10 -8 0
-15 -4 -15 -10z"/>
<path d="M4644 3076 c-8 -22 3 -49 19 -43 6 2 12 14 12 27 0 27 -22 39 -31 16z"/>
<path d="M6182 3065 c2 -14 8 -26 13 -26 6 0 11 12 13 26 2 18 -1 25 -13 25
-12 0 -15 -7 -13 -25z"/>
<path d="M7174 3076 c-8 -22 3 -49 19 -43 6 2 12 14 12 27 0 27 -22 39 -31 16z"/>
<path d="M4047 3078 c-6 -18 12 -50 24 -43 15 10 11 55 -5 55 -8 0 -16 -6 -19
-12z"/>
<path d="M4144 3076 c-8 -22 3 -49 19 -43 6 2 12 14 12 27 0 27 -22 39 -31 16z"/>
<path d="M4460 3044 c0 -9 5 -14 12 -12 18 6 21 28 4 28 -9 0 -16 -7 -16 -16z"/>
<path d="M4900 3080 c0 -5 7 -10 15 -10 8 0 15 5 15 10 0 6 -7 10 -15 10 -8 0
-15 -4 -15 -10z"/>
<path d="M4905 3040 c4 -6 11 -8 16 -5 14 9 11 15 -7 15 -8 0 -12 -5 -9 -10z"/>
<path d="M5420 3080 c0 -5 7 -10 15 -10 8 0 15 5 15 10 0 6 -7 10 -15 10 -8 0
-15 -4 -15 -10z"/>
<path d="M5425 3040 c4 -6 11 -8 16 -5 14 9 11 15 -7 15 -8 0 -12 -5 -9 -10z"/>
<path d="M5562 3065 c2 -14 8 -26 13 -26 6 0 11 12 13 26 2 18 -1 25 -13 25
-12 0 -15 -7 -13 -25z"/>
<path d="M5772 3065 c2 -14 8 -26 13 -26 6 0 11 12 13 26 2 18 -1 25 -13 25
-12 0 -15 -7 -13 -25z"/>
<path d="M6054 3076 c-8 -22 3 -49 19 -43 6 2 12 14 12 27 0 27 -22 39 -31 16z"/>
<path d="M6275 3080 c-3 -5 3 -10 15 -10 12 0 18 5 15 10 -3 6 -10 10 -15 10
-5 0 -12 -4 -15 -10z"/>
<path d="M6280 3040 c0 -5 4 -10 9 -10 6 0 13 5 16 10 3 6 -1 10 -9 10 -9 0
-16 -4 -16 -10z"/>
<path d="M6445 3080 c-3 -5 3 -10 15 -10 12 0 18 5 15 10 -3 6 -10 10 -15 10
-5 0 -12 -4 -15 -10z"/>
<path d="M6448 3038 c9 -9 15 -9 24 0 9 9 7 12 -12 12 -19 0 -21 -3 -12 -12z"/>
<path d="M6577 3078 c-6 -18 12 -50 24 -43 15 10 11 55 -5 55 -8 0 -16 -6 -19
-12z"/>
<path d="M6674 3076 c-8 -22 3 -49 19 -43 6 2 12 14 12 27 0 27 -22 39 -31 16z"/>
<path d="M6884 3076 c-8 -22 3 -49 19 -43 6 2 12 14 12 27 0 27 -22 39 -31 16z"/>
<path d="M7575 3080 c-3 -5 3 -10 15 -10 12 0 18 5 15 10 -3 6 -10 10 -15 10
-5 0 -12 -4 -15 -10z"/>
<path d="M7578 3038 c9 -9 15 -9 24 0 9 9 7 12 -12 12 -19 0 -21 -3 -12 -12z"/>
<path d="M5000 2300 c0 -11 5 -20 10 -20 6 0 10 9 10 20 0 11 -4 20 -10 20 -5
0 -10 -9 -10 -20z"/>
<path d="M4368 2283 c7 -3 16 -2 19 1 4 3 -2 6 -13 5 -11 0 -14 -3 -6 -6z"/>
<path d="M4918 2283 c7 -3 16 -2 19 1 4 3 -2 6 -13 5 -11 0 -14 -3 -6 -6z"/>
</g>
</svg>
