<?xml version="1.0" standalone="no"?>
<!DOCTYPE svg PUBLIC "-//W3C//DTD SVG 20010904//EN"
 "http://www.w3.org/TR/2001/REC-SVG-20010904/DTD/svg10.dtd">
<svg version="1.0" xmlns="http://www.w3.org/2000/svg"
 width="949.000000pt" height="531.000000pt" viewBox="0 0 949.000000 531.000000"
 preserveAspectRatio="xMidYMid meet">

<g transform="translate(0.000000,531.000000) scale(0.100000,-0.100000)"
fill="#000000" stroke="none">
<path d="M7253 3540 c-29 -7 -107 -49 -91 -50 4 0 40 13 80 30 71 29 75 36 11
20z"/>
<path d="M7904 3536 c-23 -7 -51 -19 -62 -27 -18 -13 -712 -874 -712 -884 0
-2 28 8 61 21 34 14 71 24 82 22 13 -2 -16 -18 -76 -42 -53 -21 -106 -49 -118
-62 -13 -13 -19 -24 -15 -24 4 0 80 29 168 66 88 36 170 64 181 62 12 -2 -60
-36 -164 -77 -189 -76 -209 -86 -209 -103 0 -16 32 -5 220 72 152 62 179 76
205 110 17 21 118 147 226 281 348 434 397 498 404 520 5 15 0 28 -17 46 -30
30 -113 39 -174 19z"/>
<path d="M7275 3513 c-144 -62 -164 -72 -174 -91 -9 -17 15 -10 139 40 83 34
150 65 150 69 0 17 -55 8 -115 -18z"/>
<path d="M7236 3439 c-147 -60 -225 -103 -212 -116 9 -9 406 161 406 173 0 8
-6 14 -12 13 -7 0 -89 -32 -182 -70z"/>
<path d="M3180 3456 c-240 -45 -418 -188 -476 -385 -25 -85 -23 -229 4 -316
64 -208 249 -344 508 -375 l89 -10 270 110 c149 61 274 115 279 120 17 17 -3
24 -37 13 -17 -6 -137 -54 -265 -106 -128 -52 -231 -90 -229 -84 4 12 77 45
329 146 141 57 180 81 130 81 -9 0 -93 -31 -187 -69 -260 -106 -277 -112 -273
-100 3 9 68 38 361 158 62 25 66 29 43 35 -19 5 -74 -13 -210 -69 -102 -41
-187 -75 -190 -75 -3 0 -6 4 -6 9 0 5 21 18 48 29 l47 20 -72 0 c-226 0 -365
144 -350 362 9 136 79 237 193 280 51 19 74 21 164 18 97 -4 110 -7 179 -41
92 -45 122 -46 246 -7 111 36 111 36 19 118 -66 59 -155 105 -245 127 -90 22
-277 27 -369 11z"/>
<path d="M7205 3369 c-155 -64 -225 -97 -238 -114 -21 -29 -38 -34 153 45 69
28 160 65 202 82 47 19 83 40 93 54 8 13 14 24 13 24 -2 -1 -102 -41 -223 -91z"/>
<path d="M1353 3430 c-24 -10 -43 -26 -43 -35 0 -8 1 -15 3 -15 5 0 152 61
156 65 13 14 -80 2 -116 -15z"/>
<path d="M1423 3403 c-84 -35 -113 -51 -113 -64 0 -15 22 -9 148 43 81 33 149
62 151 64 2 2 -13 4 -35 3 -22 0 -87 -20 -151 -46z"/>
<path d="M1497 3377 c-129 -53 -176 -76 -174 -87 2 -8 8 -14 13 -13 13 2 408
164 413 169 2 2 -13 4 -35 4 -25 -1 -105 -27 -217 -73z"/>
<path d="M1597 3360 c-120 -50 -222 -90 -227 -90 -6 0 -10 -4 -10 -9 0 -19 40
-17 91 4 30 12 140 57 244 100 105 42 192 79 194 81 2 2 -13 4 -35 4 -26 -1
-113 -31 -257 -90z"/>
<path d="M1711 3350 c-134 -55 -247 -102 -249 -105 -3 -3 11 -5 31 -5 22 0
128 38 284 101 136 56 250 103 252 105 2 2 -13 4 -35 4 -26 -1 -122 -35 -283
-100z"/>
<path d="M1900 3369 c-107 -44 -220 -90 -250 -102 l-55 -22 35 -3 c35 -3 84
15 420 153 63 26 117 49 119 51 2 2 -13 4 -35 4 -25 -1 -107 -29 -234 -81z"/>
<path d="M2160 3419 c-41 -17 -151 -62 -245 -100 l-170 -69 3 -424 2 -423 96
-6 c105 -6 146 2 181 35 l23 21 0 394 c0 388 0 393 20 393 26 0 390 148 409
166 40 37 -20 19 -243 -70 -134 -54 -250 -96 -257 -94 -7 2 97 49 230 104 205
84 238 99 208 102 -26 2 -103 -24 -297 -102 -233 -94 -307 -120 -287 -100 3 4
50 24 104 46 151 60 368 150 372 154 2 2 -13 4 -35 3 -21 0 -73 -14 -114 -30z"/>
<path d="M4023 3438 c-22 -11 -32 -38 -15 -38 5 0 35 11 68 25 l59 24 -45 0
c-25 0 -55 -5 -67 -11z"/>
<path d="M4095 3411 c-61 -25 -91 -43 -94 -56 -2 -12 1 -16 10 -12 8 2 63 24
122 48 81 32 104 45 90 50 -27 11 -31 10 -128 -30z"/>
<path d="M5105 3426 c-46 -21 -66 -43 -198 -219 -82 -107 -155 -201 -163 -208
-9 -7 -84 -40 -168 -74 -184 -75 -187 -77 -177 -93 6 -10 38 -1 142 42 122 49
159 60 133 37 -5 -4 -64 -30 -131 -57 -68 -27 -123 -53 -123 -57 0 -21 36 -14
131 24 57 22 110 43 117 46 6 3 12 1 12 -5 0 -5 -46 -28 -102 -51 -123 -50
-129 -53 -119 -69 5 -9 32 -2 106 28 102 41 115 45 115 33 0 -5 -45 -26 -100
-48 -55 -22 -100 -43 -100 -48 0 -20 34 -15 114 17 48 19 86 30 84 24 -2 -6
-38 -25 -79 -42 -42 -17 -77 -34 -78 -39 -8 -25 12 -25 78 3 83 34 81 33 81
21 0 -5 -31 -22 -70 -37 -38 -15 -70 -31 -70 -36 0 -19 31 -19 76 1 50 23 64
25 64 13 0 -4 -23 -16 -50 -26 -52 -19 -65 -29 -55 -46 4 -6 25 -2 55 9 28 11
50 15 50 9 0 -5 -18 -17 -40 -25 -22 -9 -40 -20 -40 -25 0 -15 28 -20 50 -8
12 6 25 8 28 4 4 -4 1 -9 -5 -11 -22 -8 -14 -23 12 -23 48 0 82 28 136 112 29
46 77 121 107 168 31 47 75 115 99 153 24 37 44 67 46 67 1 0 1 -114 1 -253
-1 -138 3 -266 7 -283 5 -17 20 -36 32 -42 27 -14 177 -25 223 -16 l34 6 0
524 0 524 -107 0 c-92 0 -115 -4 -158 -24z"/>
<path d="M4128 3367 c-95 -38 -128 -56 -128 -69 0 -17 3 -17 48 1 185 73 252
105 240 112 -20 13 -24 12 -160 -44z"/>
<path d="M4158 3322 c-95 -39 -158 -70 -158 -78 0 -8 4 -14 9 -14 11 0 290
113 316 127 13 8 14 11 3 20 -9 7 -56 -8 -170 -55z"/>
<path d="M2322 3315 c-84 -34 -156 -65 -159 -69 -4 -3 11 -6 33 -6 53 1 288
99 292 123 2 9 0 17 -5 16 -4 0 -77 -29 -161 -64z"/>
<path d="M7145 3289 c-188 -77 -268 -119 -252 -135 1 -2 97 35 212 82 141 58
220 95 240 115 16 16 27 29 25 28 -3 0 -104 -41 -225 -90z"/>
<path d="M4170 3271 c-108 -45 -166 -74 -168 -85 -2 -9 0 -16 5 -16 24 2 357
147 356 155 -4 20 -31 12 -193 -54z"/>
<path d="M2375 3280 c-89 -39 -89 -39 -48 -40 44 0 143 33 155 53 24 37 4 35
-107 -13z"/>
<path d="M4188 3222 c-143 -58 -188 -81 -188 -94 0 -10 1 -18 3 -18 1 0 93 38
204 83 156 64 200 86 191 95 -7 7 -14 12 -17 11 -4 0 -90 -35 -193 -77z"/>
<path d="M5893 3276 c-34 -11 -108 -56 -91 -56 8 0 151 60 157 65 8 9 -23 4
-66 -9z"/>
<path d="M7240 3270 c-25 -10 -119 -49 -210 -86 -147 -59 -219 -99 -206 -112
5 -4 278 103 390 152 30 13 59 34 66 45 6 12 9 21 8 21 -2 -1 -23 -9 -48 -20z"/>
<path d="M5892 3233 c-125 -52 -136 -65 -108 -125 59 -123 302 -125 361 -2 23
50 20 66 -11 54 -14 -6 -35 -10 -47 -9 -16 0 -9 6 22 20 33 15 42 22 33 31 -9
9 -32 4 -95 -20 -116 -44 -141 -40 -35 6 99 43 108 49 84 58 -9 3 -70 -16
-142 -46 -69 -28 -135 -50 -146 -48 -13 2 33 25 115 58 79 32 131 58 124 62
-21 13 -39 8 -155 -39z"/>
<path d="M4208 3172 c-160 -65 -208 -89 -208 -102 0 -15 25 -8 158 47 86 35
182 74 212 85 66 24 75 32 58 45 -9 7 -72 -14 -220 -75z"/>
<path d="M4415 3200 c-11 -5 -108 -44 -215 -88 -139 -57 -196 -85 -199 -97 -4
-21 -29 -30 251 83 120 48 216 92 215 97 -5 14 -28 16 -52 5z"/>
<path d="M7170 3186 c-30 -13 -129 -54 -220 -92 -91 -37 -172 -77 -182 -89 -9
-11 -15 -21 -14 -22 3 -3 427 169 443 180 12 7 38 48 31 47 -2 -1 -28 -11 -58
-24z"/>
<path d="M4375 3127 c-55 -23 -162 -67 -237 -97 -107 -43 -138 -59 -138 -73 0
-10 4 -17 8 -15 4 2 119 48 255 103 194 78 244 102 235 112 -14 17 -9 18 -123
-30z"/>
<path d="M4258 3022 c-197 -81 -258 -110 -258 -124 0 -14 22 -8 138 39 75 31
139 59 142 62 3 3 12 7 20 9 8 1 56 19 105 38 50 20 100 40 112 45 15 5 21 14
17 24 -3 8 -9 15 -13 14 -3 0 -122 -48 -263 -107z"/>
<path d="M6955 3040 c-104 -44 -198 -79 -207 -80 -17 0 -347 -404 -361 -443
-13 -34 0 -81 31 -110 28 -26 90 -57 116 -57 8 0 57 53 108 117 51 64 160 200
241 302 123 155 145 187 130 192 -15 6 -14 8 8 14 23 6 93 65 78 65 -3 0 -50
-18 -105 -40 -54 -23 -108 -39 -119 -38 -11 2 41 27 115 56 90 36 141 62 153
78 10 13 14 24 10 24 -4 0 -93 -36 -198 -80z"/>
<path d="M4423 3033 c-65 -26 -113 -52 -113 -60 0 -7 5 -13 11 -13 24 0 249
96 246 105 -7 20 -33 14 -144 -32z"/>
<path d="M4452 2989 c-98 -41 -120 -54 -111 -65 12 -14 9 -15 187 57 76 31 97
51 61 56 -8 2 -69 -20 -137 -48z"/>
<path d="M4493 2948 c-73 -30 -123 -56 -123 -64 0 -21 11 -18 151 38 103 41
126 54 118 65 -6 7 -14 13 -18 12 -3 0 -61 -23 -128 -51z"/>
<path d="M4135 2915 c-81 -33 -131 -59 -133 -69 -2 -9 0 -16 5 -16 4 0 67 24
138 54 85 34 131 58 133 69 2 10 0 17 -5 16 -4 0 -66 -24 -138 -54z"/>
<path d="M4130 2856 c-88 -37 -126 -57 -128 -70 -3 -14 0 -17 12 -13 144 56
266 112 266 123 0 21 -14 17 -150 -40z"/>
<path d="M4138 2802 c-103 -41 -138 -60 -138 -73 0 -15 22 -9 138 38 75 30
139 56 140 58 2 2 2 10 0 18 -2 12 -33 3 -140 -41z"/>
<path d="M4205 2773 c-33 -14 -93 -38 -132 -55 -42 -17 -73 -36 -73 -44 0 -8
3 -14 8 -14 21 -1 282 115 279 123 -6 18 -20 16 -82 -10z"/>
<path d="M5900 2761 c-85 -26 -137 -86 -126 -145 9 -50 71 -101 138 -116 50
-11 58 -10 123 15 77 30 91 40 106 66 7 14 -11 9 -87 -21 -52 -22 -94 -34 -91
-27 2 6 47 29 100 51 53 22 97 46 97 53 0 19 -11 17 -107 -22 -48 -19 -89 -33
-92 -30 -9 9 13 21 97 55 45 18 82 36 82 41 0 20 -25 18 -91 -11 -75 -32 -89
-35 -89 -22 0 5 32 21 70 36 39 15 70 32 70 36 0 18 -21 20 -57 4 -79 -33 -83
-34 -83 -20 0 7 18 19 40 26 22 7 40 16 40 20 0 13 -37 18 -56 7 -13 -7 -19
-7 -22 1 -4 13 -25 14 -62 3z"/>
<path d="M4145 2691 c-92 -38 -141 -63 -143 -74 -2 -10 -1 -17 2 -17 4 0 60
23 126 50 66 28 124 50 129 50 12 0 34 28 29 39 -1 5 -66 -17 -143 -48z"/>
<path d="M4145 2635 c-71 -30 -134 -56 -139 -58 -4 -1 -7 -10 -5 -19 3 -14 27
-7 144 41 92 38 141 63 143 74 2 10 0 17 -5 16 -4 0 -66 -25 -138 -54z"/>
<path d="M3571 2664 c-19 -8 -32 -17 -29 -19 3 -3 25 3 49 14 24 11 37 20 29
20 -8 0 -30 -6 -49 -15z"/>
<path d="M4133 2573 c-100 -42 -133 -60 -133 -73 0 -16 7 -15 68 10 37 15 102
42 145 60 44 18 77 38 77 46 0 21 -13 17 -157 -43z"/>
<path d="M7220 2524 c-163 -68 -183 -79 -158 -89 22 -9 287 101 318 131 36 35
14 30 -160 -42z"/>
<path d="M4145 2521 c-100 -41 -141 -62 -143 -76 -3 -14 0 -16 14 -11 185 70
274 112 274 128 0 10 -1 18 -2 17 -2 0 -66 -27 -143 -58z"/>
<path d="M3603 2471 c-117 -48 -215 -90 -218 -92 -3 -3 19 -2 48 2 78 10 328
114 362 149 16 17 27 30 24 29 -2 0 -100 -40 -216 -88z"/>
<path d="M4135 2460 c-132 -56 -137 -59 -95 -59 57 0 243 77 248 102 2 9 0 17
-5 16 -4 0 -71 -27 -148 -59z"/>
<path d="M7202 2458 c-87 -36 -120 -54 -112 -62 19 -19 211 59 230 93 6 12 9
21 8 21 -2 -1 -58 -24 -126 -52z"/>
<path d="M4200 2429 l-65 -28 43 -1 c49 0 102 23 102 45 0 19 -2 19 -80 -16z"/>
<path d="M7203 2402 c-66 -26 -80 -42 -38 -42 35 0 72 19 90 47 9 12 14 23 13
22 -2 0 -31 -12 -65 -27z"/>
<path d="M3070 1933 c-54 -7 -73 -15 -96 -40 -31 -34 -33 -99 -4 -136 39 -50
144 -61 204 -22 23 16 25 20 12 27 -11 6 -24 4 -38 -6 -32 -23 -100 -20 -132
5 -32 25 -36 84 -8 119 26 32 92 38 136 12 23 -14 38 -17 42 -11 16 26 -58 59
-116 52z"/>
<path d="M3430 1929 c-45 -10 -90 -60 -90 -100 0 -70 55 -119 135 -119 80 0
135 49 135 121 0 38 -56 99 -91 100 -13 0 -31 2 -39 3 -8 2 -31 -1 -50 -5z
m93 -31 c33 -17 46 -39 47 -76 0 -50 -37 -82 -95 -82 -35 0 -52 6 -70 25 -27
27 -33 79 -12 106 29 38 88 50 130 27z"/>
<path d="M1600 1920 c0 -5 23 -10 50 -10 l50 0 0 -95 c0 -88 1 -95 20 -95 19
0 20 7 20 95 l0 95 45 0 c25 0 45 5 45 10 0 6 -45 10 -115 10 -70 0 -115 -4
-115 -10z"/>
<path d="M1980 1825 c0 -98 1 -105 20 -105 17 0 20 7 20 45 l0 45 75 0 75 0 0
-45 c0 -38 3 -45 20 -45 19 0 20 7 20 105 0 98 -1 105 -20 105 -17 0 -20 -7
-20 -45 l0 -45 -75 0 -75 0 0 45 c0 38 -3 45 -20 45 -19 0 -20 -7 -20 -105z"/>
<path d="M2380 1825 l0 -105 100 0 c60 0 100 4 100 10 0 6 -33 10 -80 10 l-80
0 0 35 0 35 60 0 c47 0 60 3 60 15 0 12 -13 15 -61 15 l-60 0 3 33 3 32 78 3
c113 4 95 22 -23 22 l-100 0 0 -105z"/>
<path d="M3770 1825 l0 -105 81 0 c82 0 107 7 147 43 24 22 30 74 11 109 -18
34 -86 58 -166 58 l-73 0 0 -105z m180 56 c36 -26 39 -79 5 -111 -19 -18 -40
-25 -85 -28 l-60 -4 0 87 0 88 58 -7 c31 -3 68 -15 82 -25z"/>
<path d="M4190 1825 c0 -98 1 -105 20 -105 19 0 20 7 20 105 0 98 -1 105 -20
105 -19 0 -20 -7 -20 -105z"/>
<path d="M4400 1825 c0 -98 1 -105 20 -105 18 0 20 7 20 77 l0 78 78 -78 c50
-50 85 -77 100 -77 21 0 22 3 22 105 0 98 -1 105 -20 105 -18 0 -20 -7 -20
-82 l0 -83 -83 83 c-45 45 -90 82 -100 82 -15 0 -17 -12 -17 -105z"/>
<path d="M4848 1914 c-35 -19 -48 -43 -48 -92 0 -75 65 -120 158 -109 53 6
102 50 102 92 0 24 -3 25 -60 25 -33 0 -60 -4 -60 -10 0 -5 18 -10 40 -10 46
0 53 -17 20 -50 -15 -15 -33 -20 -67 -20 -54 1 -78 14 -93 54 -31 82 59 142
150 101 47 -21 65 -12 31 16 -29 24 -132 26 -173 3z"/>
<path d="M5430 1825 c0 -98 1 -105 20 -105 17 0 19 8 22 72 l3 71 48 -71 c26
-40 53 -72 60 -72 6 0 33 33 59 73 l48 72 0 -72 c0 -66 2 -73 20 -73 19 0 20
7 20 105 0 99 -1 105 -20 105 -15 0 -35 -23 -72 -80 -28 -44 -53 -80 -57 -80
-3 0 -28 36 -55 80 -39 63 -54 80 -72 80 -24 0 -24 -1 -24 -105z"/>
<path d="M5928 1828 c-48 -85 -54 -104 -40 -107 9 -2 23 6 30 18 13 18 24 21
93 21 69 0 78 -2 84 -20 4 -13 15 -20 30 -20 23 0 21 4 -34 103 -80 140 -88
140 -163 5z m113 12 l27 -50 -59 0 -59 0 26 50 c14 28 29 50 33 50 3 0 18 -23
32 -50z"/>
<path d="M6318 1914 c-35 -19 -48 -43 -48 -92 0 -75 70 -122 162 -108 53 8 87
31 71 47 -8 8 -17 7 -34 -5 -28 -19 -107 -21 -131 -2 -23 17 -39 62 -32 91 14
56 87 80 154 50 47 -21 65 -12 31 16 -29 24 -132 26 -173 3z"/>
<path d="M6670 1825 c0 -98 1 -105 20 -105 17 0 20 7 20 45 l0 45 80 0 80 0 0
-45 c0 -38 3 -45 20 -45 19 0 20 7 20 105 0 98 -1 105 -20 105 -17 0 -20 -7
-20 -45 l0 -45 -80 0 -80 0 0 45 c0 38 -3 45 -20 45 -19 0 -20 -7 -20 -105z"/>
<path d="M7080 1825 c0 -98 1 -105 20 -105 19 0 20 7 20 105 0 98 -1 105 -20
105 -19 0 -20 -7 -20 -105z"/>
<path d="M7290 1825 c0 -98 1 -105 20 -105 18 0 20 7 20 77 l0 78 78 -78 c50
-50 85 -77 100 -77 21 0 22 3 22 105 0 98 -1 105 -20 105 -18 0 -20 -7 -20
-82 l0 -83 -83 83 c-45 45 -90 82 -100 82 -15 0 -17 -12 -17 -105z"/>
<path d="M7690 1825 l0 -105 100 0 c60 0 100 4 100 10 0 6 -33 10 -80 10 l-80
0 0 35 0 35 60 0 c47 0 60 3 60 15 0 12 -13 15 -60 15 l-60 0 0 35 0 35 80 0
c47 0 80 4 80 10 0 6 -40 10 -100 10 l-100 0 0 -105z"/>
</g>
</svg>
